<?xml version="1.0" encoding="UTF-8"?>
<svg id="Layer_1" xmlns="http://www.w3.org/2000/svg" version="1.1" viewBox="0 0 254.5 18">
  <!-- Generator: Adobe Illustrator 29.1.0, SVG Export Plug-In . SVG Version: 2.1.0 Build 142)  -->
  <path d="M0,12.3h3.1c.2,1.5,1.2,3.3,4.2,3.3s3.8-1.3,3.8-2.6-.6-2.2-3.2-2.6l-2-.3C2.2,9.4.7,7.8.7,5S3.1,0,7,0s6.7,2.7,6.9,5.4h-3.1c-.3-1.6-1.3-3-3.8-3s-3.3,1.3-3.3,2.4.7,2,3.1,2.4l1.9.3c3.6.6,5.7,2.3,5.7,5.2s-2.7,5.2-7.1,5.2S.2,15.5,0,12.3Z" fill="#333" opacity=".8"/>
  <path d="M24.7,9c0-5.3,4.1-9,9.3-9s9.2,3.7,9.2,9-4,9-9.2,9-9.3-3.7-9.3-9ZM34,15.3c3.5,0,6-2.4,6-6.3s-2.5-6.3-6-6.3-6,2.4-6,6.3,2.5,6.3,6,6.3Z" fill="#333" opacity=".8"/>
  <path d="M54.7.4h7.9c3.2,0,5.8,2,5.8,5.4s-2.5,5.3-6,5.3h-4.6v6.6h-3.1V.4ZM62.2,8.5c1.7,0,3-1,3-2.8s-1.3-2.8-3.1-2.8h-4.4v5.6h4.4Z" fill="#333" opacity=".8"/>
  <path d="M79.4.4h3.1v7.1h7.9V.4h3.1v17.3h-3.1v-7.5h-7.9v7.5h-3.1V.4Z" fill="#333" opacity=".8"/>
  <path d="M106,.4h3.1v17.3h-3.1V.4Z" fill="#333" opacity=".8"/>
  <path d="M121.6.4h11.9v2.5h-8.9v4.7h8.1v2.5h-8.1v5h8.9v2.5h-11.9V.4Z" fill="#333" opacity=".8"/>
  <path d="M157.3.4h3.2l3.7,14.3,3.5-14.3h3.6l3.4,14.3,3.8-14.3h3.2l-4.8,17.3h-4.2l-3.3-13.8-3.3,13.8h-4.1L157.3.4Z" fill="#333" opacity=".8"/>
  <path d="M196.8.4h3.8l7,17.3h-3.5l-1.6-4.3h-7.8l-1.6,4.3h-3.3L196.8.4ZM201.6,10.9l-3.1-7.9-3,7.9h6Z" fill="#333" opacity=".8"/>
  <path d="M218.2.4h3.1v8l6.7-8h3.7l-7.1,8.4,8,8.9h-4.1l-7.1-8.1v8.1h-3.1V.4Z" fill="#333" opacity=".8"/>
  <path d="M242.6.4h11.9v2.5h-8.9v4.7h8.1v2.5h-8.1v5h8.9v2.5h-11.9V.4Z" fill="#333" opacity=".8"/>
</svg>