<?xml version="1.0" encoding="UTF-8"?>
<svg id="Layer_1" xmlns="http://www.w3.org/2000/svg" version="1.1" viewBox="0 0 79.5 5.4">
  <!-- Generator: Adobe Illustrator 29.3.1, SVG Export Plug-In . SVG Version: 2.1.0 Build 151)  -->
  <path d="M79.5,1.3c0,0,0-.3-.1-.2v.3c0,0,.1,0,.1,0Z" fill="#202020"/>
  <path d="M78.7.7c-.1.2-.3.5-.2.8.1-.3.2-.2.3-.6.1,0,.2,0,.2.2,0,0,.2,0,.2-.1-.2-.2-.4-.3-.5,0,0,0,0-.2,0-.2Z" fill="#202020"/>
  <path d="M67.4.6h0s0,0,0,0Z" fill="#202020"/>
  <path d="M60.4.8c0,0,0,0,0,0,0,0,0,0,0,0Z" fill="#202020"/>
  <path d="M59.2.5s0,0,0,0c0,0,0,0,0,0Z" fill="#202020"/>
  <path d="M67.4.6h-.2s0,0,.2,0Z" fill="#202020"/>
  <path d="M77.2,1.5s0,0,0,0c0,0,0,0,0,0,0,0,0,0,0,0Z" fill="#202020"/>
  <path d="M70.5.2h0s0,0,0-.1h0Z" fill="#202020"/>
  <path d="M72.9,0c0,0,0,.3,0,.4,0-.1,0-.2.1-.2,0,0,0-.1,0-.2Z" fill="#202020"/>
  <path d="M76.6.4h0s0,0,0,0Z" fill="#202020"/>
  <path d="M68.8.3s0,0,0,0c0,0,0,0,0,0Z" fill="#202020"/>
  <path d="M2.8,5.2s0,0,0,0c0,0,0,0,0,0Z" fill="#202020"/>
  <path d="M0,4h0c0,0,0-.1,0-.2v.2Z" fill="#202020"/>
  <path d="M57,.2s0,0,0,0c0,0,0,0,0,0Z" fill="#202020"/>
  <path d="M37,1.3c.2.2-.4.3,0,.6,0-.1.3-.5,0-.6Z" fill="#202020"/>
  <path d="M77.1,1.5s0,0,0,0c0,0,0,0,0,0Z" fill="#202020"/>
  <path d="M37,1.9s0,0,0,0h0s0,0,0,0Z" fill="#202020"/>
  <path d="M52,.6s0,0,0,.1c0,0,0,0,0-.1Z" fill="#202020"/>
  <path d="M55.8.8h0s0,0,0,0Z" fill="#202020"/>
  <path d="M50.1,1.1c0,0,0,0-.1,0,0,0,0,0,0,0,0,0,0,0,.1,0Z" fill="#202020"/>
  <path d="M48.1,1.1s0,0,0,0c0,0,0,0,0,0h-.1Z" fill="#202020"/>
  <path d="M9,4.8c0,0,0-.2-.1-.2,0,.2-.3.3.1.2Z" fill="#202020"/>
  <path d="M77.2,1.4c0,0,0,.1,0,.1,0,0,0,0,0,0,0,0,0,0,0-.1Z" fill="#202020"/>
  <path d="M50.1,3.3h-.3c0,0,.2,0,.3,0Z" fill="#202020"/>
  <path d="M23.5,4.2h0s0,0,0,0Z" fill="#202020"/>
  <path d="M48.8,3.3c0,0-.1-.2-.2-.2,0,0,0,0,0,0h.2Z" fill="#202020"/>
  <path d="M8.9,4.6s0,0,0,0c0,0,0,0,0,0Z" fill="#202020"/>
  <path d="M6.8,5.3c.3,0,.1-.4.2-.6.4-.1.2.3.3.4.2-.1.4-.5.6-.4,0,0,0,0,0,.2.2-.3.7,0,1-.4,0,0,0,0,0,0,0-.2,0-.4,0-.5.1,0,.2-.2.3,0,0,0,0,0-.1.2h.1c.1.2-.2,0-.2.3.3-.1.6-.4.8-.3,0,.3-.5.1-.2.4h-.3c.3.4-.2-.1,0,.4.4,0,.5-.2.9-.1,0-.2,0-.3,0-.5.6-.4.5.8,1,.4.1-.2.1-.7.5-.4v.4c.3,0,.1-.6.6-.3,0,.2-.3.1-.3.2.3.3.2-.2.4-.2v.3c.5,0,1-.3,1.5-.4,0,.1-.1.2,0,.3.6-.2,1.3,0,2,.2l.2-.3c0,0,.1.1,0,.2.2.1,0-.2.1-.3.1,0,.2.2.1.3.4-.3,1.2-.6,1.6-.3h0c.3.2.4-.5.7-.3h0c.8.1,1.6-.2,2.1.3,0-.4.7.2.8-.4.4.3.3.4.9.6.2,0,.2-.4.4-.4v.3s.3-.3.3-.3l.2.4h.2c0-.1-.2-.2-.2-.3.3-.2.7.2.7.3l.7-.3c0,.1-.1.2-.2.3.4-.3,0,.3.4,0,0,0,0-.2,0-.2.2.2.6.2.8,0v.2c.5,0,1-.1,1.6-.2-.2,0-.2-.5,0-.5v.3c.2-.2,0-.1.1-.4.2,0,.2.4,0,.5h.3s0,0,0,.2c0-.2.5.3.6,0h0c.6,0,.8,0,1.3,0,0-.3.2-.2.3-.5.3,0,.7.3,1.1.2.3-.2,0-.2.2-.4,0,.3.4.2.2.4.5,0,.6,0,1.2-.3,0-.1-.2-.1-.1-.2.1,0,.3,0,.3.2h0c.7-.4,1.7.7,2.2.1h0s.6-.3.6-.3c.3,0-.2.2,0,.3.6-.5,1,0,1.5-.3.4.7,1.4-.1,2,.3v-.2c0-.2.1,0,.2.1,0-.1-.2-.2,0-.3,1.2-.3,2.4.2,3.7.3.4,0,.2-.9.8-.5v.3c.7-.4,1.7,0,2.5-.4,0,0,0,.2-.1.2.2.2.7,0,.7-.2.1,0,0,.2.1.3.2.1.5-.3.6,0,0,0,0,0,0,.1.1-.1.6,0,.4-.3.3.1.6-.2.9,0,.2-.3.6.1.6-.3,0,.5.6.3.8.1,0,.1.2.1.1.3.2,0,.4-.1.4-.3.5.5.9-.5,1.1.2.7-.3,1.3-.5,2-.6,0,.5-.7,0-.6.5.6-.2.9-.6,1.5-.5.2,0,0,.2-.1.3.6-.2,1.2,0,1.7-.3,0,0,0,0-.1.1.1,0,.2,0,.2-.1h0c-.2-.2.4-.6.4-.7-.2.6.5.1.3.9,0,0,.1-.1.1-.3.1,0,.1.1,0,.3.4-.1.2-.3.6-.3,0,0,0,.1,0,.3.2-.2.3-.4.6-.3,0,0,0,.1,0,.1.5,0,.8-.6,1.4-.4-.1.4.2.1.2.5h.3c0-.1-.1-.3-.1-.3.3,0,.5-.3.7-.2l-.2.2h.5c0,0-.3-.2-.3-.2.2-.2,0-.5.3-.4,0,0,.3,0,.4.2,0,0,0,0,0,0,.1-.1.2-.3.4-.2,0,.1,0,.4,0,.5.1-.3.6-.1.7-.5,0,0,0,.3,0,.3v-.3c.2,0,.2.1.2.3.4,0-.1-.5.3-.3,0,0,0,0,0,.1.4,0,.8-.2,1.2,0,.1.4-.3.1-.2.4.6,0,1.1-.5,1.7-.4h-.1c0-.6.4.2.7,0,0,0,0,.3,0,.2.4,0,.8-.2,1.3-.4h0c.2.3.6.2.8.2,0-.1.2-.1.1-.3.8.7,1.4-.5,2.1.1,0,0-.2.1-.1.1h.5c0-.4,0-.3-.2-.5,0-.1.2-.3.4-.3-.2.2,0,.4.1.5,0,0,0-.1,0-.2.3.4,0-.5.4-.2h0c.1,0,.3-.1.4,0,0,.3-.2.1-.2.4.2,0,.4-.5.6-.3,0,0-.2,0-.3.2.2.3.3.2.4.3h0s.4.1.4.1h0c.2-.8.6-.2.9-.7-.3.4,0,.3,0,.6,0,0,.2.2.2.3.2-.3.3.2.5-.2,0,0,.2,0,.2.2.2,0,0-.2,0-.3.3-.3.9.4,1.3-.1.4-.2.5-.5.9-.7.1.1,0,.4,0,.4.2.1.4.1.6,0,0,0,0,.2,0,.3.2,0,0-.4.3-.2,0,.1,0,.3-.2.4.2,0,.4-.3.6-.4,0,.2-.1.3-.2.4.2,0,.6-.2.7-.5h-.2c0-.1,0,.1,0,.2-.2.2-.3,0-.3-.2h.1c-.2-.6-.6,0-.9,0v-.4c.1,0-.2.4-.2.4,0-.1-.1-.3,0-.4-.2-.2-.2.2-.4,0,0,0,0,0,0,0h-.2s0-.2,0-.1c-.4-.2-.6.3-.7,0h0c-.5.1,0,.3-.4.7l-.3-.7v.3c0,0-.2,0-.2-.1-.2.2,0,.1,0,.3-.3-.3-.7.2-.8-.3,0,.2.3.2,0,.3-.1-.5-.3.1-.6-.1,0-.3.3-.1,0-.4-.1.5-.5,0-.7,0,0,.4-.4.2-.7.3,0-.1-.6-.2-.9-.3h0c0,.3-.4.3-.6.3,0-.2,0-.3.2-.4h-.2c0,.1-.1.2-.3.2V.2c-.2,0-.5.3-.9.2,0,.3.3.7,0,.9,0-.1,0-.4,0-.4,0,0-.1.1-.2,0v-.2c0,0,0,.2,0,.2,0-.2-.1-.1,0-.3,0,0,.1,0,.2,0-.2,0-.3-.1-.4-.3,0,.1,0,.3,0,.3-.3,0-.1-.2-.3-.3,0,.1-.3,0-.2.3,0,0-.1-.1-.1-.2-.1.1-.7,0-.5.4h0s0,0,0,0h0s0,0,0,0c-.5.3-1-.1-1.5,0h0c-.3,0-.6,0-.8.2,0,0-.2-.2-.2-.3-.2,0-.2.2-.6,0,.2-.2,0-.1.2-.1-.3,0-.4-.2-.7,0,0-.3-.2-.3-.4-.2l.2.2c-.2,0-.3,0-.4,0v-.3c-.5-.4-1,.7-1.5,0-.1.2.3.1.2.4-.3,0-.6-.5-.7-.5-.4-.2-.3.5-.7.4,0,.1.1.4-.2.6-.3,0-.4-.5-.2-.6,0,0,0,0,0,0,0,0,.2-.1,0-.2h0c-.1,0-.5,0-.4-.2-.2.1,0,.2,0,.3-.4-.2-.5,0-.9,0,0,0,.1.2,0,.2-.5-.1-.2.2-.6.3-.2-.2,0-.4-.3-.3-.2-.1,0-.3,0-.4-.3.2-.6-.1-.8-.2h.2c-.1,0-.2,0-.3,0v.2s0,0,0-.1c0,.2,0,.4-.1.6-.1-.1-.4.1-.5-.2.4,0,0-.3.3-.4,0,0-.2,0-.3,0,0,0,0,0,0,0-.4-.3-.2.4-.6.4,0-.2-.1-.3-.2-.3.2,0,0,.3,0,.4-.3-.1-.3.1-.4.1h.2c0,.2-.2.2-.4.3,0-.1.2-.1,0-.2-.2.3-.5-.3-.8,0-.1-.1,0-.3-.1-.4-.3.2-.4-.2-.7,0,.1.2.1.2-.1.4l.6-.2-.3.4c.2,0,.4-.2.5-.1-.2.2-.1.1,0,.3-.2-.3-.5.2-.7,0v-.6c-.4-.2-.7.3-1.3.2h.2c0,.3-.3.1-.5.2,0-.2-.1-.3-.2-.4,0,.1-.4,0-.4.4l-.2-.2c-.4,0-.5.6-.9.5.1-.2,0-.4.2-.5-.1,0-.3,0-.3.1,0-.1-.4.3-.5.1,0,0,0,.3-.2.3,0,0,0,0,0,0,0,0-.2.1,0,.4-.4-.6-1.2,0-1.6-.4-.3,0-.6.2-.9.2,0,0,0,0,0,0-.4-.2-.2.6-.6.4-.2-.3.2-.2,0-.3,0-.6-.5.1-.8-.3h0c-.2-.3-.5.2-.9.2,0,0,0,0,0,0-.2.3-.7.5-1,.6,0-.3.1-.1,0-.4-.2,0,0,.4-.2.5-.1-.1-.3-.2-.4-.5h.3c-.2-.4-.4,0-.5,0v-.2c-.4,0-.4.5-.9.5h0c-.2.5-.2,0-.5.2v-.4c-.3.1-.7.4-1,.5.2-.3.5-.5.7-.6-.2,0-.6,0-.7.3,0,0,.1-.1.2,0-.2.3-.5.5-.8.5,0-.8-.9-.2-1.2-.7-.6.3-1.2,0-1.9,0,.3.6-.2,0-.1.6-.2,0-.2,0-.2,0l-.5-.3c-.1-.2.1-.1.1-.3-.4,0-.2-.3-.4-.4,0,.2-.1.3-.3.2l.3.3c-.5.3-.5-.5-.9-.2l.2-.2c-.3.1-1,0-1.2.5,0,0-.1-.2,0-.3-.6,0-1.3.6-1.8.3v-.2c0,0-.1.3-.3.1,0,0,0-.2,0-.2,0,0-.3.3-.4.2v-.2c-.5-.2-.8.4-1.3.6,0-.4-.5-.6-.7-.6h0c-.7,0-1.2.4-1.8.6-.4-.5-1.4-.1-2-.4.1,0,0,.3-.1.4-.2,0-.4.3-.4,0h0c-.1-.4-.4-.3-.7-.3v.5c-.7-.7-1.7.4-2-.3-.1.1-.3.1-.5.3v-.3c-.4,0-.6,0-1.2,0v-.2c-.2,0-.2.8-.5.9v-.4c-.6,0-1.2-.3-1.7,0,0,0,0-.2,0-.2-.2,0-1-.2-.8.3,0-.4-.5,0-.8.2v-.3c-.2.4-.2.5-.5.6,0,0,0-.2,0-.2-.3-.1-.2.3-.5.1v-.2c-.2,0-.1,0-.3.3-.2.1-.5,0-.6-.3,0,.2-.2.4-.3.3,0,0,0-.2,0-.2-.5-.2-.7.4-1,0,0,0,0-.1,0-.2.4,0,.6,0,.6,0,0-.3-.3-.3,0-.7-.2.2-.6.6-.9.5,0,0,0,0,0,0h0c0,0-.1,0-.2,0,0,0-.1,0-.2,0,0-.2-.3-.1-.5-.1,0,.3-.2.2,0,.5,0,0,0,0,.1,0,0,0,0,0,0,0,0,0,0,0,0,0,0,0,.2,0,.4,0-.1.1-.2.3-.4.1,0,.2-.1.4-.2.5-.2-.4-.6-.6-.7-.8-.4.2-1,.1-1.3.7-.1,0-.1-.1-.2-.2,0,0,.2,0,.2-.1-.2.1-.7,0-.8.5-.3-.2.2-.3-.3-.3h0c-.9-.7-1.3.9-2.3.2,0,0,.1,0,.1.1-1.1-.3-2.2.4-3.3,0-.3,0-.3.1-.5.3v-.3c0,0-.4.4-.4.4-.4.3-.8-.7-1.3-.2v.2c-.1,0-.6.1-.5,0,0,0,0,.2-.1.1v-.2s-.5.3-.5.3c-.4,0,0-.6-.5-.6-.2,0-.6.5-.5.6,0,0,.2,0,.2.2H0c0,.6-.1,1,.3,1.3l.3-.3v.2c.1,0-.2,0-.2,0,.2.2.3,0,.4-.1,0,.1,0,.2.1.2l.3-.5c0,.2-.1.4,0,.5.1-.2-.2-.4,0-.5.2.2.1.4.3.2,0,.1,0,.2,0,.3.2-.2.4,0,.5-.3.2.3.5,0,.6.3,0-.1.3-.4.4-.4-.3.5.6,0,.5.6.2-.5.7-.2,1.1-.5,0,0,0,.1,0,0,.2,0,.3.2.4.3,0-.4.3-.5.5-.7.3.4-.1.5,0,.8,0-.3.4-.3.3-.6.2.2.2.1.3.4,0-.5.2,0,.3-.4.3.2,0,.5.4.3.1.1-.1.3-.1.3ZM13.9,4.2s0,0,0,0c0,0-.1,0-.1,0,0,0,0,0,.1,0ZM14.5,4.2c0,0-.2,0-.3,0,0,0,0-.2,0-.2,0,0,.1.1.2.2ZM13.1,2.3c0,0,.1,0,.1,0,0,0,0,0-.2,0,0,0,0,0,0,0,0,0,0-.1,0-.1Z" fill="#202020"/>
  <path d="M13,2.6s0,0,0,0c0,0,0,0,0,0,0,0,0,0,0,0,0,0,0,0,0,0Z" fill="#202020"/>
  <path d="M67.5.7h0s0,0,0,0c0,0,0,0,0,0Z" fill="#202020"/>
  <polygon points="22.8 4.3 22.8 4.3 22.8 4.3 22.8 4.3" fill="#202020"/>
  <path d="M70.9,1.5s0,0,0,0c0,0,0,0,0,0Z" fill="#202020"/>
  <path d="M72.3,1.5h.2c0,0-.2,0-.2,0Z" fill="#202020"/>
  <path d="M73.4,1.6s0,0,0-.1c0,0,0,0,0,0h0Z" fill="#202020"/>
  <path d="M55.9,2.7s0,0,0,0c0,0,0,0,0,0Z" fill="#202020"/>
  <path d="M61.1,1.8c0,0-.1.1-.2.1,0,0,.2,0,.2-.1Z" fill="#202020"/>
  <path d="M50.1,3.3s0,0,0,0c0,0,0,0,0,0h0Z" fill="#202020"/>
  <path d="M60.7,2c0,0,.2,0,.2,0,0,0-.2,0-.2,0Z" fill="#202020"/>
  <path d="M78.2,1.5h0s0,0,0,0h0Z" fill="#202020"/>
  <path d="M78.3,1.5h0s0,0,0,0Z" fill="#202020"/>
  <path d="M78.4,1.4h-.1c0,0,0,0,.1,0Z" fill="#202020"/>
  <path d="M76.7,1.5h0c0,0,0,0,0,0Z" fill="#202020"/>
  <path d="M76.3,1.5c.1,0,.3.2.4.1h0c0,0-.3-.3-.4-.1Z" fill="#202020"/>
  <path d="M74.4.3h.4c0,0-.2-.2,0-.2-.5-.3.1.2-.4.2Z" fill="#202020"/>
  <path d="M73.2.2c.2,0,0-.2,0-.2-.1.1-.2.1,0,.2Z" fill="#202020"/>
  <path d="M64.9.6v-.3c-.1,0,0,0,0,.3Z" fill="#202020"/>
  <polygon points="63.4 2 63.5 2.1 63.6 1.9 63.4 2" fill="#202020"/>
  <polygon points="62.4 .2 62.4 .1 62.2 .3 62.4 .2" fill="#202020"/>
  <path d="M48.4.9v.3c.2,0,.2-.4,0-.3Z" fill="#202020"/>
  <path d="M42.4,1.5c0-.2-.2-.2-.3,0,.1,0,.3.1.3,0Z" fill="#202020"/>
  <polygon points="24.3 1.7 24.4 1.6 24.2 1.7 24.3 1.7" fill="#202020"/>
</svg>